<svg xmlns="http://www.w3.org/2000/svg" width="880.8" height="830.1" viewBox="0 0 880.8 830.1"><g transform="translate(-269.5 -747.21)"><path d="M875,1097.21H545v-55H875v55Z" fill="#002e6d"/><path d="M765.3,1367.6a55.05,55.05,0,1,1-55.1-54.9,55.05,55.05,0,0,1,55.1,54.9m117.5,123.9c-1.6.8-3.2,1.7-4.8,2.5q-13.5,6.45-27.6,12c-2.4.9-4.8,1.7-7.2,2.6-7.5,2.8-15.1,5.3-22.8,7.6l-8,2.4c-9.7,2.7-19.6,5-29.6,6.9-1.9.3-3.8.6-5.6.9-8.6,1.5-17.2,2.7-26,3.6-2.9.3-5.8.6-8.7.8-10.6.9-21.2,1.5-32,1.5-5.7,0-11.2-.6-16.9-.9-83.3-8.4-148.2-78.5-148.2-163.7,0-90.9,73.9-164.6,165.1-164.6s164.9,73.5,165.1,164.3a276.807,276.807,0,0,1-61.1,34.8c3.6-10.9,6.1-22.3,6.1-34.5,0-60.6-49.3-109.7-110.1-109.7s-110.1,49.1-110.1,109.7,49.3,109.7,110.1,109.7h0c163.6,0,299.1-118.7,325.3-274.3h55.6c-18.2,126.5-98.3,233.1-208.6,288.4M329.4,1203h161v165h0a218.58,218.58,0,0,0,34,117c-103.6-57.2-177.7-160.4-195.2-282m766.2-55H985.5A272.78,272.78,0,0,1,925,1319.6a219.95,219.95,0,0,0-379.6-96.8V1149h-221v-1H269.9c0,242.5,197.2,439.1,440.4,439.1s440.4-196.5,440.4-439.1Z" transform="translate(-0.4 -9.79)" fill="#002e6d"/><path d="M848.8,846.3c-20.2,0-38.8,5.8-55.1,15.2a109.331,109.331,0,0,0-55-15.2,113.334,113.334,0,0,0-28.1,3.7A104.3,104.3,0,0,0,629,861.4a109.731,109.731,0,0,0-55.4-15.1c-60.8,0-110.1,49.1-110.1,109.7v54.9h55V956a54.15,54.15,0,0,1,69.1-52.8A108.67,108.67,0,0,0,573.5,956v54.9h55V956a55,55,0,0,1,55-54.9V1011h55V901.3a55,55,0,0,1,55,54.9v54.9h55V956.2a108.379,108.379,0,0,0-14.1-52.8,54.15,54.15,0,0,1,69.1,52.8v54.9h55V956.2c0-60.6-49.3-109.7-110.1-109.7" transform="translate(-0.4 -9.79)" fill="#002e6d"/><path d="M722,773.21v-26H698v26H672v24h26v26h24v-26h26v-24Z" fill="#002e6d"/></g></svg>